<svg width="66" height="64" viewBox="0 0 66 64" fill="none" xmlns="http://www.w3.org/2000/svg">
<path d="M63.9004 30.9377C63.7713 30.774 60.6703 26.884 55.3539 22.9782C48.2498 17.7588 40.5199 15 32.9998 15C25.48 15 17.75 17.7588 10.6456 22.9782C5.32943 26.8838 2.22845 30.774 2.09914 30.9377L1 32.3278L2.09928 33.7181C2.22859 33.8817 5.32957 37.7719 10.6458 41.6777C17.7502 46.8969 25.4801 49.6558 32.9999 49.6558C40.5199 49.6558 48.2498 46.8969 55.3539 41.6777C60.6703 37.7719 63.7713 33.8817 63.9004 33.7181L65 32.3278L63.9004 30.9377ZM32.9998 44.4669C26.3063 44.4669 20.8607 39.0214 20.8607 32.3278C20.8607 31.2791 20.9943 30.2611 21.2455 29.2898L18.4741 28.8233C18.2026 29.9477 18.0585 31.1212 18.0585 32.3278C18.0585 36.6515 19.9054 40.5515 22.8507 43.2823C19.0593 41.8818 15.8353 39.9166 13.4021 38.1392C10.3876 35.9374 8.12834 33.7105 6.84034 32.3278C8.1289 30.9447 10.3878 28.7181 13.4021 26.5165C15.8353 24.7391 19.0595 22.7738 22.8507 21.3732L24.71 23.4689C26.8813 21.4357 29.7975 20.1887 32.9998 20.1887C39.6932 20.1887 45.1388 25.6342 45.1388 32.3278C45.1388 39.0214 39.6932 44.4669 32.9998 44.4669ZM52.5975 38.1392C50.164 39.9166 46.9401 41.8818 43.1488 43.2823C46.094 40.5517 47.9409 36.6517 47.9409 32.3277C47.9409 28.0037 46.094 24.1038 43.1488 21.373C46.9403 22.7737 50.164 24.7389 52.5975 26.5163C55.612 28.7181 57.8712 30.945 59.1592 32.3275C57.8707 33.711 55.6117 35.9377 52.5975 38.1392Z" fill="#5D78FF"/>
<path d="M25.2751 29.9682C25.0473 30.7148 24.9238 31.5068 24.9238 32.328C24.9238 36.7881 28.5396 40.404 32.9999 40.404C37.46 40.404 41.0757 36.7883 41.0757 32.328C41.0757 27.8677 37.46 24.252 32.9999 24.252C30.8274 24.252 28.8568 25.1114 27.4051 26.5068L31.3886 30.997L25.2751 29.9682Z" fill="#5D78FF"/>
</svg>
