<svg width="66" height="64" viewBox="0 0 66 64" fill="none" xmlns="http://www.w3.org/2000/svg">
<g clip-path="url(#clip0)">
<g clip-path="url(#clip1)">
<path d="M25.4524 44.7871C25.2087 44.7871 24.9633 44.7041 24.763 44.5351L17.8712 38.7213C17.6335 38.5205 17.4968 38.2273 17.4968 37.9176C17.4968 37.6085 17.6341 37.3153 17.8712 37.1145L24.763 31.3008C25.2105 30.9228 25.8827 30.9763 26.2643 31.4197C26.6452 31.8636 26.5917 32.5296 26.1436 32.907L20.2046 37.9176L26.1436 42.9283C26.5917 43.3063 26.6452 43.9722 26.2643 44.4155C26.0533 44.6611 25.7537 44.7871 25.4524 44.7871Z" fill="#5D78FF"/>
<path d="M39.0576 44.7871C38.7563 44.7871 38.4568 44.6611 38.2464 44.4155C37.8648 43.9722 37.9189 43.3063 38.3664 42.9283L44.3055 37.9176L38.3664 32.907C37.9189 32.5296 37.8648 31.8636 38.2464 31.4197C38.6273 30.9763 39.3001 30.9228 39.747 31.3008L46.6388 37.1145C46.8765 37.3153 47.0132 37.6085 47.0132 37.9176C47.0132 38.2273 46.8765 38.5205 46.6388 38.7213L39.747 44.5351C39.5467 44.7041 39.3013 44.7871 39.0576 44.7871V44.7871Z" fill="#5D78FF"/>
<path d="M29.8154 49.1479C29.7423 49.1479 29.6686 49.1402 29.5943 49.1249C29.019 49.0048 28.6505 48.4449 28.7717 47.8749L33.0669 27.6716C33.1881 27.1017 33.7527 26.7366 34.3286 26.8567C34.9039 26.9768 35.2724 27.5362 35.1512 28.1067L30.856 48.31C30.7502 48.807 30.3081 49.1479 29.8154 49.1479V49.1479Z" fill="#5D78FF"/>
<path d="M57.3591 60.1547H7.15087C3.20815 60.1547 0 56.977 0 53.0703V10.8527C0 6.94662 3.20815 3.76831 7.15087 3.76831H57.3591C61.3019 3.76831 64.51 6.94662 64.51 10.8527V53.0703C64.51 56.977 61.3019 60.1547 57.3591 60.1547ZM7.15087 5.87855C4.38252 5.87855 2.13005 8.11007 2.13005 10.8527V53.0703C2.13005 55.8129 4.38252 58.0445 7.15087 58.0445H57.3591C60.1275 58.0445 62.38 55.8129 62.38 53.0703V10.8527C62.38 8.11007 60.1275 5.87855 57.3591 5.87855H7.15087Z" fill="#5D78FF"/>
<path d="M63.445 20.6637H1.06502C0.476646 20.6637 0 20.1915 0 19.6086C0 19.0263 0.476646 18.5535 1.06502 18.5535H63.445C64.0334 18.5535 64.51 19.0263 64.51 19.6086C64.51 20.1915 64.0334 20.6637 63.445 20.6637Z" fill="#5D78FF"/>
<path d="M18.1969 15.6149C16.3391 15.6149 14.8265 14.1164 14.8265 12.2758C14.8265 10.4347 16.3391 8.93677 18.1969 8.93677C20.0554 8.93677 21.5673 10.4347 21.5673 12.2758C21.5673 14.1164 20.0554 15.6149 18.1969 15.6149ZM18.1969 11.047C17.5135 11.047 16.9566 11.5981 16.9566 12.2758C16.9566 12.9535 17.5135 13.5046 18.1969 13.5046C18.881 13.5046 19.4373 12.9535 19.4373 12.2758C19.4373 11.5981 18.881 11.047 18.1969 11.047Z" fill="#5D78FF"/>
<path d="M7.84146 15.5824C5.98302 15.5824 4.47107 14.0845 4.47107 12.2433C4.47107 10.4022 5.98302 8.9043 7.84146 8.9043C9.69991 8.9043 11.2119 10.4022 11.2119 12.2433C11.2119 14.0845 9.69991 15.5824 7.84146 15.5824ZM7.84146 11.0145C7.15799 11.0145 6.60112 11.5662 6.60112 12.2433C6.60112 12.921 7.15799 13.4722 7.84146 13.4722C8.52553 13.4722 9.08181 12.921 9.08181 12.2433C9.08181 11.5662 8.52553 11.0145 7.84146 11.0145Z" fill="#5D78FF"/>
<path d="M28.5524 15.6466C26.6946 15.6466 25.1826 14.1487 25.1826 12.3076C25.1826 10.467 26.6946 8.96912 28.5524 8.96912C30.4109 8.96912 31.9228 10.467 31.9228 12.3076C31.9228 14.1487 30.4109 15.6466 28.5524 15.6466ZM28.5524 11.0788C27.8689 11.0788 27.3127 11.6299 27.3127 12.3076C27.3127 12.9853 27.8689 13.5364 28.5524 13.5364C29.2365 13.5364 29.7928 12.9853 29.7928 12.3076C29.7928 11.6299 29.2365 11.0788 28.5524 11.0788Z" fill="#5D78FF"/>
</g>
</g>
<defs>
<clipPath id="clip0">
<rect width="65.31" height="63.93" fill="white"/>
</clipPath>
<clipPath id="clip1">
<rect width="64.51" height="63.91" fill="white"/>
</clipPath>
</defs>
</svg>
