<svg width="66" height="64" viewBox="0 0 66 64" fill="none" xmlns="http://www.w3.org/2000/svg">
<g clip-path="url(#clip0)">
<path d="M64.1003 22.5062C64.7684 22.5062 65.31 21.976 65.31 21.3221C65.31 20.6681 64.7684 20.1379 64.1003 20.1379H60.4703V15.4109H64.1003C64.7684 15.4109 65.31 14.8807 65.31 14.2267C65.31 13.5728 64.7684 13.0426 64.1003 13.0426H60.4703V10.6567C60.4703 7.392 57.7569 4.73597 54.4218 4.73597H51.9859V1.18414C51.9859 0.530199 51.4442 0 50.7762 0C50.1081 0 49.5665 0.530199 49.5665 1.18414V4.73597H44.7372V1.18414C44.7372 0.530199 44.1956 0 43.5275 0C42.8594 0 42.3178 0.530199 42.3178 1.18414V4.73597H37.4887V1.18414C37.4887 0.530199 36.947 0 36.279 0C35.6109 0 35.0693 0.530199 35.0693 1.18414V4.73597H30.2403V1.18414C30.2403 0.530199 29.6986 0 29.0306 0C28.3625 0 27.8209 0.530199 27.8209 1.18414V4.73597H22.9917V1.18414C22.9917 0.530199 22.4501 0 21.782 0C21.114 0 20.5723 0.530199 20.5723 1.18414V4.73597H15.7432V1.18414C15.7432 0.530199 15.2016 0 14.5335 0C13.8655 0 13.3238 0.530199 13.3238 1.18414V4.73597H10.8851C7.5499 4.73597 4.83654 7.392 4.83654 10.6567V13.0426H1.2097C0.541644 13.0426 0 13.5728 0 14.2267C0 14.8807 0.541644 15.4109 1.2097 15.4109H4.83654V20.1379H1.2097C0.541644 20.1379 0 20.6681 0 21.3221C0 21.976 0.541644 22.5062 1.2097 22.5062H4.83654V27.2333H1.2097C0.541644 27.2333 0 27.7635 0 28.4175C0 29.0714 0.541644 29.6016 1.2097 29.6016H4.83654V34.3285H1.2097C0.541644 34.3285 0 34.8587 0 35.5127C0 36.1666 0.541644 36.6968 1.2097 36.6968H4.83654V41.4239H1.2097C0.541644 41.4239 0 41.9541 0 42.6081C0 43.262 0.541644 43.7922 1.2097 43.7922H4.83654V48.5193H1.2097C0.541644 48.5193 0 49.0495 0 49.7034C0 50.3574 0.541644 50.8876 1.2097 50.8876H4.83654V53.2735C4.83654 56.5382 7.5499 59.1942 10.8851 59.1942H13.3238V62.7459C13.3238 63.3998 13.8655 63.93 14.5335 63.93C15.2016 63.93 15.7432 63.3998 15.7432 62.7459V59.1942H20.5723V62.7459C20.5723 63.3998 21.114 63.93 21.782 63.93C22.4501 63.93 22.9917 63.3998 22.9917 62.7459V59.1942H27.8209V62.7459C27.8209 63.3998 28.3625 63.93 29.0306 63.93C29.6986 63.93 30.2403 63.3998 30.2403 62.7459V59.1942H35.0693V62.7459C35.0693 63.3998 35.6109 63.93 36.279 63.93C36.947 63.93 37.4887 63.3998 37.4887 62.7459V59.1942H42.3178V62.7459C42.3178 63.3998 42.8594 63.93 43.5275 63.93C44.1956 63.93 44.7372 63.3998 44.7372 62.7459V59.1942H49.5665V62.7459C49.5665 63.3998 50.1081 63.93 50.7762 63.93C51.4442 63.93 51.9859 63.3998 51.9859 62.7459V59.1942H54.4218C57.7569 59.1942 60.4703 56.5382 60.4703 53.2735V50.8876H64.1003C64.7684 50.8876 65.31 50.3574 65.31 49.7034C65.31 49.0495 64.7684 48.5193 64.1003 48.5193H60.4703V43.7922H64.1003C64.7684 43.7922 65.31 43.262 65.31 42.6081C65.31 41.9541 64.7684 41.4239 64.1003 41.4239H60.4703V36.6968H64.1003C64.7684 36.6968 65.31 36.1666 65.31 35.5127C65.31 34.8587 64.7684 34.3285 64.1003 34.3285H60.4703V29.6016H64.1003C64.7684 29.6016 65.31 29.0714 65.31 28.4175C65.31 27.7635 64.7684 27.2333 64.1003 27.2333H60.4703V22.5062H64.1003ZM58.0509 53.2733C58.0509 55.232 56.4228 56.8257 54.4218 56.8257H10.8851C8.88405 56.8257 7.25594 55.232 7.25594 53.2733V10.6567C7.25594 8.69781 8.88405 7.10425 10.8851 7.10425H54.4218C56.4228 7.10425 58.0509 8.69781 58.0509 10.6567V53.2733Z" fill="#5D78FF"/>
<path d="M51.9834 10.6752H13.3233C11.9893 10.6752 10.9039 11.7375 10.9039 13.0435V50.8867C10.9039 52.1925 11.9893 53.255 13.3233 53.255H51.9834C53.3174 53.255 54.4029 52.1925 54.4029 50.8867V13.0435C54.4029 11.7375 53.3174 10.6752 51.9834 10.6752ZM13.3233 50.8865V13.0435H51.9834L51.9838 50.8867H13.3233V50.8865Z" fill="#5D78FF"/>
</g>
<defs>
<clipPath id="clip0">
<rect width="65.31" height="63.93" fill="white"/>
</clipPath>
</defs>
</svg>
