<svg width="66" height="64" viewBox="0 0 66 64" fill="none" xmlns="http://www.w3.org/2000/svg">
<g clip-path="url(#clip0)">
<path d="M45.8788 37.5996C46.9272 37.5984 47.9323 37.1903 48.6736 36.4649C49.4149 35.7395 49.8319 34.7559 49.8331 33.73V33.5378H52.9675C53.2042 33.5377 53.4313 33.4456 53.5987 33.2817C53.7661 33.1179 53.8602 32.8957 53.8604 32.664V20.9106C53.8602 20.6789 53.7661 20.4567 53.5987 20.2929C53.4313 20.1291 53.2042 20.037 52.9675 20.0368H49.8331V19.8456C49.8315 18.8199 49.4143 17.8368 48.673 17.1117C47.9318 16.3866 46.9269 15.9787 45.8788 15.9775H35.0787V12.5469C36.1896 12.0114 37.0827 11.1238 37.6126 10.0284C38.1425 8.9331 38.278 7.69453 37.9971 6.51425C37.7161 5.33397 37.0353 4.28146 36.0654 3.52797C35.0954 2.77449 33.8935 2.36438 32.655 2.36438C31.4166 2.36438 30.2147 2.77449 29.2447 3.52797C28.2748 4.28146 27.5939 5.33397 27.313 6.51425C27.0321 7.69453 27.1676 8.9331 27.6975 10.0284C28.2274 11.1238 29.1205 12.0114 30.2314 12.5469V15.9775H19.4313C18.3829 15.9787 17.3778 16.3868 16.6365 17.1122C15.8952 17.8376 15.4782 18.8212 15.477 19.8471V20.0383H12.3426C12.1058 20.0384 11.8788 20.1305 11.7114 20.2944C11.544 20.4582 11.4498 20.6804 11.4497 20.9121V32.664C11.4498 32.8957 11.544 33.1179 11.7114 33.2817C11.8788 33.4456 12.1058 33.5377 12.3426 33.5378H15.477V33.73C15.4782 34.7559 15.8952 35.7395 16.6365 36.4649C17.3778 37.1903 18.3829 37.5984 19.4313 37.5996H25.6393V40.2538H15.405C14.3567 40.255 13.3516 40.6631 12.6103 41.3885C11.8689 42.114 11.4519 43.0975 11.4507 44.1234V60.6646C11.4509 60.8963 11.545 61.1185 11.7124 61.2823C11.8798 61.4461 12.1069 61.5382 12.3436 61.5384H52.9665C53.2032 61.5382 53.4303 61.4461 53.5977 61.2823C53.7651 61.1185 53.8592 60.8963 53.8594 60.6646V44.1234C53.8581 43.0975 53.4411 42.114 52.6998 41.3885C51.9585 40.6631 50.9534 40.255 49.905 40.2538H39.6708V37.5996H45.8788ZM52.0746 21.7844V31.7903H49.8331V21.7844H52.0746ZM28.9558 7.73914C28.9558 7.02319 29.1728 6.32332 29.5793 5.72803C29.9857 5.13274 30.5635 4.66876 31.2394 4.39478C31.9154 4.1208 32.6591 4.04911 33.3767 4.18879C34.0943 4.32846 34.7534 4.67323 35.2708 5.17948C35.7881 5.68573 36.1404 6.33074 36.2832 7.03293C36.4259 7.73512 36.3526 8.46296 36.0727 9.12441C35.7927 9.78586 35.3185 10.3512 34.7102 10.749C34.1019 11.1467 33.3867 11.359 32.655 11.359C31.6743 11.358 30.734 10.9763 30.0405 10.2976C29.347 9.61899 28.9569 8.69887 28.9558 7.73914V7.73914ZM32.0173 13.0671C32.4407 13.1197 32.8693 13.1197 33.2928 13.0671V15.9775H32.0173V13.0671ZM13.2355 31.7903V21.7844H15.477V31.7903H13.2355ZM17.2628 33.73V19.8456C17.2635 19.283 17.4922 18.7436 17.8987 18.3458C18.3052 17.948 18.8564 17.7242 19.4313 17.7236H31.1095H31.1243C31.1243 17.7236 31.134 17.7236 31.1391 17.7236H34.171H34.1857C34.1857 17.7236 34.1954 17.7236 34.2005 17.7236H45.8788C46.4537 17.7242 47.0049 17.948 47.4114 18.3458C47.8179 18.7436 48.0466 19.283 48.0473 19.8456V33.73C48.0466 34.2926 47.8179 34.832 47.4114 35.2298C47.0049 35.6276 46.4537 35.8514 45.8788 35.852H38.8023C38.7942 35.852 38.7865 35.8496 38.7779 35.8496C38.7692 35.8496 38.7615 35.8495 38.7534 35.852H26.5588C26.5506 35.852 26.543 35.8496 26.5343 35.8496C26.5256 35.8496 26.5179 35.8495 26.5098 35.852H19.4313C18.8564 35.8514 18.3052 35.6276 17.8987 35.2298C17.4922 34.832 17.2635 34.2926 17.2628 33.73V33.73ZM43.2419 59.7908H22.0672V52.5825H43.2419V59.7908ZM52.0735 44.1234V59.7908H45.0277V51.7087C45.0277 51.477 44.9336 51.2547 44.7662 51.0909C44.5987 50.927 44.3716 50.8349 44.1348 50.8349H21.1743C20.9375 50.8351 20.7105 50.9272 20.543 51.091C20.3756 51.2549 20.2815 51.477 20.2814 51.7087V59.7908H13.2365V44.1234C13.2372 43.5608 13.4659 43.0214 13.8724 42.6236C14.279 42.2258 14.8301 42.002 15.405 42.0014H49.905C50.48 42.002 51.0311 42.2258 51.4377 42.6236C51.8442 43.0214 52.0729 43.5608 52.0735 44.1234V44.1234ZM37.8849 40.2538H27.4251V37.5996H37.8849V40.2538Z" fill="#5D78FF"/>
<path d="M28.191 24.7892C28.1908 24.0239 27.9587 23.2759 27.5241 22.6397C27.0895 22.0035 26.4719 21.5077 25.7493 21.215C25.0268 20.9222 24.2318 20.8457 23.4648 20.9951C22.6978 21.1445 21.9933 21.513 21.4404 22.0542C20.8874 22.5954 20.5109 23.2848 20.3583 24.0354C20.2058 24.7859 20.2841 25.5639 20.5833 26.2709C20.8826 26.9779 21.3893 27.5822 22.0395 28.0074C22.6897 28.4327 23.4541 28.6597 24.2362 28.6598C25.2848 28.6587 26.2902 28.2506 27.0316 27.5249C27.7731 26.7992 28.19 25.8154 28.191 24.7892ZM24.2362 26.9122C23.8073 26.9122 23.388 26.7878 23.0314 26.5546C22.6748 26.3214 22.3969 25.99 22.2327 25.6023C22.0686 25.2145 22.0257 24.7879 22.1093 24.3762C22.193 23.9646 22.3995 23.5865 22.7028 23.2897C23.0061 22.9929 23.3925 22.7908 23.8131 22.709C24.2338 22.6271 24.6698 22.6691 25.066 22.8297C25.4622 22.9903 25.8009 23.2623 26.0392 23.6113C26.2775 23.9602 26.4047 24.3705 26.4047 24.7902C26.404 25.3528 26.1753 25.8922 25.7688 26.29C25.3622 26.6878 24.8111 26.9116 24.2362 26.9122Z" fill="#5D78FF"/>
<path d="M41.0739 28.6598C41.856 28.6598 42.6206 28.4328 43.2708 28.0076C43.9211 27.5824 44.428 26.9781 44.7272 26.271C45.0265 25.564 45.1049 24.7859 44.9523 24.0353C44.7997 23.2847 44.4231 22.5952 43.8701 22.054C43.317 21.5129 42.6124 21.1443 41.8454 20.995C41.0783 20.8457 40.2832 20.9223 39.5607 21.2152C38.8381 21.5081 38.2206 22.0041 37.7861 22.6404C37.3515 23.2767 37.1196 24.0249 37.1196 24.7902C37.1208 25.8161 37.5378 26.7997 38.2792 27.5251C39.0205 28.2505 40.0256 28.6586 41.0739 28.6598V28.6598ZM41.0739 22.6682C41.5028 22.6682 41.9221 22.7926 42.2787 23.0258C42.6353 23.259 42.9132 23.5904 43.0774 23.9781C43.2415 24.3659 43.2844 24.7926 43.2008 25.2042C43.1171 25.6158 42.9106 25.9939 42.6073 26.2907C42.304 26.5875 41.9176 26.7896 41.497 26.8714C41.0763 26.9533 40.6403 26.9113 40.2441 26.7507C39.8479 26.5901 39.5092 26.3181 39.2709 25.9691C39.0326 25.6202 38.9054 25.2099 38.9054 24.7902C38.9061 24.2276 39.1348 23.6883 39.5413 23.2904C39.9479 22.8926 40.499 22.6689 41.0739 22.6682V22.6682Z" fill="#5D78FF"/>
<path d="M26.4685 32.392C26.4686 32.6237 26.5628 32.8458 26.7302 33.0097C26.8976 33.1735 27.1246 33.2656 27.3614 33.2657H37.9488C38.1856 33.2657 38.4127 33.1737 38.5802 33.0098C38.7476 32.8459 38.8417 32.6237 38.8417 32.392C38.8417 32.1602 38.7476 31.938 38.5802 31.7741C38.4127 31.6102 38.1856 31.5182 37.9488 31.5182H27.3614C27.1246 31.5183 26.8976 31.6104 26.7302 31.7743C26.5628 31.9381 26.4686 32.1603 26.4685 32.392V32.392Z" fill="#5D78FF"/>
<path d="M48.3744 47.993C48.8538 47.993 49.3224 47.8539 49.7209 47.5933C50.1195 47.3327 50.4301 46.9622 50.6136 46.5289C50.797 46.0955 50.845 45.6187 50.7515 45.1586C50.658 44.6985 50.4271 44.276 50.0882 43.9443C49.7492 43.6126 49.3174 43.3867 48.8472 43.2952C48.3771 43.2037 47.8898 43.2507 47.4469 43.4302C47.0041 43.6097 46.6256 43.9137 46.3593 44.3037C46.0929 44.6937 45.9508 45.1522 45.9508 45.6213C45.9516 46.2501 46.2072 46.8528 46.6616 47.2974C47.1159 47.742 47.7319 47.9922 48.3744 47.993V47.993ZM48.3744 44.9972C48.5006 44.9972 48.6239 45.0338 48.7288 45.1024C48.8336 45.1709 48.9154 45.2684 48.9637 45.3825C49.0119 45.4965 49.0246 45.622 49 45.7431C48.9754 45.8641 48.9146 45.9753 48.8254 46.0626C48.7362 46.1499 48.6226 46.2093 48.4989 46.2334C48.3751 46.2575 48.2469 46.2451 48.1303 46.1979C48.0138 46.1507 47.9142 46.0707 47.8441 45.968C47.774 45.8654 47.7366 45.7447 47.7366 45.6213C47.7368 45.4558 47.804 45.2971 47.9236 45.1801C48.0432 45.0631 48.2053 44.9973 48.3744 44.9972Z" fill="#5D78FF"/>
<path d="M14.5121 45.6213C14.5121 46.0904 14.6542 46.5489 14.9205 46.9389C15.1868 47.3289 15.5654 47.6329 16.0082 47.8124C16.4511 47.9919 16.9384 48.0389 17.4085 47.9474C17.8787 47.8559 18.3105 47.63 18.6495 47.2983C18.9884 46.9666 19.2192 46.544 19.3127 46.084C19.4063 45.6239 19.3583 45.1471 19.1748 44.7137C18.9914 44.2803 18.6807 43.9099 18.2822 43.6493C17.8836 43.3887 17.415 43.2496 16.9357 43.2496C16.2932 43.2504 15.6772 43.5006 15.2228 43.9452C14.7685 44.3898 14.5129 44.9925 14.5121 45.6213V45.6213ZM16.9357 44.9972C17.0618 44.9972 17.1852 45.0338 17.29 45.1024C17.3949 45.1709 17.4767 45.2684 17.5249 45.3825C17.5732 45.4965 17.5858 45.622 17.5612 45.743C17.5366 45.8641 17.4759 45.9753 17.3867 46.0626C17.2975 46.1499 17.1838 46.2093 17.0601 46.2334C16.9364 46.2575 16.8082 46.2451 16.6916 46.1979C16.5751 46.1507 16.4755 46.0707 16.4054 45.968C16.3353 45.8654 16.2979 45.7447 16.2979 45.6213C16.2979 45.4558 16.3651 45.297 16.4847 45.18C16.6043 45.0629 16.7665 44.9972 16.9357 44.9972V44.9972Z" fill="#5D78FF"/>
</g>
<defs>
<clipPath id="clip0">
<rect width="65.31" height="63.93" fill="white"/>
</clipPath>
</defs>
</svg>
